<svg width="393" height="32" viewBox="0 0 393 32" fill="none" xmlns="http://www.w3.org/2000/svg">
<path fill-rule="evenodd" clip-rule="evenodd" d="M0 0H9.4975C18.6675 0 37.335 0 56.0025 4.26667C74.9975 8.53333 93.665 17.0667 112.332 20.2667C131 23.4667 149.667 21.3333 168.335 17.0667C187.002 12.8 205.997 6.4 224.665 7.46667C243.332 8.53333 262 17.0667 280.667 20.2667C299.335 23.4667 318.002 21.3333 336.997 17.0667C355.665 12.8 374.332 6.4 383.502 3.2L393 0V32H383.502C374.332 32 355.665 32 336.997 32C318.002 32 299.335 32 280.667 32C262 32 243.332 32 224.665 32C205.997 32 187.002 32 168.335 32C149.667 32 131 32 112.332 32C93.665 32 74.9975 32 56.0025 32C37.335 32 18.6675 32 9.4975 32H0V0Z" fill="white"/>
</svg>
