<svg width="1800" height="60" viewBox="0 0 1800 60" fill="none" xmlns="http://www.w3.org/2000/svg">
<path fill-rule="evenodd" clip-rule="evenodd" d="M0 0H43.5C85.5 0 171 0 256.5 8C343.5 16 429 32 514.5 38C600 44 685.5 40 771 32C856.5 24 943.5 12 1029 14C1114.5 16 1200 32 1285.5 38C1371 44 1456.5 40 1543.5 32C1629 24 1714.5 12 1756.5 6L1800 0V60H1756.5C1714.5 60 1629 60 1543.5 60C1456.5 60 1371 60 1285.5 60C1200 60 1114.5 60 1029 60C943.5 60 856.5 60 771 60C685.5 60 600 60 514.5 60C429 60 343.5 60 256.5 60C171 60 85.5 60 43.5 60H0V0Z" fill="white"/>
</svg>
