<?xml version="1.0" encoding="UTF-8"?>
<!DOCTYPE svg  PUBLIC '-//W3C//DTD SVG 1.1//EN'  'http://www.w3.org/Graphics/SVG/1.1/DTD/svg11.dtd'>
<svg width="800px" height="800px" clip-rule="evenodd" fill="#000000" fill-rule="evenodd" stroke-linejoin="round" stroke-miterlimit="2" version="1.1" viewBox="0 0 32 32" xml:space="preserve" xmlns="http://www.w3.org/2000/svg">

<g transform="translate(-384 -96)">

<g transform="matrix(1.2 0 0 .9375 -77.4 7.625)">

<path d="m392 108.13c0-1.178-0.746-2.133-1.667-2.133h-1.666c-0.921 0-1.667 0.955-1.667 2.133v11.734c0 1.178 0.746 2.133 1.667 2.133h1.666c0.921 0 1.667-0.955 1.667-2.133v-11.734z" fill="#90e0ef"/>

</g>

<g transform="translate(201.03 -162)">

<path d="m196 270.46c0-0.351 0.092-0.696 0.268-1 0.641-1.111 2.277-3.944 3.155-5.464 0.357-0.619 1.017-1 1.732-1h0.387c0.602 0 1.172 0.271 1.552 0.738 0.379 0.466 0.529 1.079 0.407 1.668-0.238 1.144-0.511 2.461-0.704 3.391-0.061 0.294 0.014 0.601 0.204 0.834 0.19 0.234 0.475 0.369 0.775 0.369h6.224c0.53 0 1.039 0.211 1.414 0.586s0.586 0.884 0.586 1.414v6.298c0 0.455-0.155 0.895-0.438 1.25-0.719 0.898-2.149 2.686-2.962 3.701-0.379 0.475-0.954 0.751-1.561 0.751h-9.039c-1.105 0-2-0.895-2-2v-11.536z" fill="#90e0ef"/>

</g>

<path d="m404.81 107 0.703-3.391c0.184-0.883-0.041-1.803-0.61-2.503-0.57-0.7-1.425-1.106-2.327-1.106h-0.388c-1.072 0-2.062 0.572-2.598 1.5-0.878 1.52-2.513 4.353-3.155 5.464-0.263 0.456-0.402 0.973-0.402 1.5v11.536c0 1.657 1.343 3 3 3h9.039c0.911 0 1.773-0.414 2.343-1.126 0.812-1.015 2.242-2.803 2.961-3.701 0.425-0.532 0.657-1.193 0.657-1.875v-6.298c0-0.796-0.316-1.559-0.878-2.121-0.563-0.563-1.326-0.879-2.122-0.879h-6.223zm-10.811 2c0-1.657-1.343-3-3-3h-2c-1.657 0-3 1.343-3 3v11c0 1.657 1.343 3 3 3h2c1.657 0 3-1.343 3-3v-11zm4.034 11v-11.536c0-0.175 0.046-0.348 0.134-0.5l3.155-5.464c0.179-0.309 0.509-0.5 0.866-0.5h0.388c0.301 0 0.585 0.135 0.775 0.369 0.19 0.233 0.265 0.54 0.204 0.834l-0.704 3.391c-0.122 0.589 0.028 1.202 0.407 1.668 0.38 0.467 0.95 0.738 1.552 0.738h6.223c0.265 0 0.52 0.105 0.707 0.293 0.188 0.187 0.293 0.442 0.293 0.707v6.298c0 0.228-0.077 0.448-0.219 0.625l-2.961 3.702c-0.19 0.237-0.477 0.375-0.781 0.375h-9.039c-0.552 0-1-0.448-1-1zm-6.034-11v11c0 0.552-0.448 1-1 1h-2c-0.552 0-1-0.448-1-1v-11c0-0.552 0.448-1 1-1h2c0.552 0 1 0.448 1 1z" fill="#1990a7"/>

</g>

</svg>